# xmcd
#
# Track frame offsets:
#	150
#	12700
#	26875
#	41124
#	54372
#	69246
#	84226
#	95493
#	109540
#	118748
#	130568
#	144234
#	157185
#	169861
#	198467
#
# Disc length: 2654 seconds
#
# Revision: 1
# Processed by: cddbd v1.5.2PL0 Copyright (c) Steve Scherf et al.
# Submitted via: audiograbber 1.83.01
#
DISCID=c90a5c0f
DTITLE=Pavel Bobek - Víc nehledám
DYEAR=2010
DGENRE=Country
TTITLE0=Víc nehledám
TTITLE1=Dokud budu zít
TTITLE2=Desperát
TTITLE3=To já nejsem
TTITLE4=Kdo o mne bude stát
TTITLE5=Dívka ze severu
TTITLE6=Velká reka
TTITLE7=Nenos kolty do mesta
TTITLE8=Co nadelás
TTITLE9=Pohádka o dívce snu
TTITLE10=Dlouhý sál
TTITLE11=Tenhle splín
TTITLE12=Stestí mé jsi ty
TTITLE13=Nedelní ráno
TTITLE14=Daten-CD
EXTD=Pocta písním, které zpíval Johny Cash
EXTT0=
EXTT1=
EXTT2=
EXTT3=
EXTT4=
EXTT5=
EXTT6=
EXTT7=
EXTT8=
EXTT9=
EXTT10=
EXTT11=
EXTT12=
EXTT13=
EXTT14=
PLAYORDER=
